<svg viewBox="0 0 30.5762 30.5381" xmlns="http://www.w3.org/2000/svg" xmlns:xlink="http://www.w3.org/1999/xlink" width="30.576172" height="30.538086" fill="none" customFrame="#000000">
	<path id="Vector" d="M29.3134 9.22308C28.7398 7.91288 27.9807 6.69183 27.0592 5.59746C25.6972 3.93139 23.9974 2.57238 22.0717 1.60991C20.146 0.647442 18.0381 0.103307 15.8868 0.0133326C13.7354 -0.0766425 11.5895 0.289575 9.58997 1.08789C7.59054 1.88621 5.78298 3.09851 4.28629 4.64502C2.78958 6.19153 1.63768 8.03717 0.906392 10.0605C0.175106 12.0838 -0.11899 14.2389 0.0434644 16.384C0.205919 18.5289 0.821245 20.6153 1.84893 22.5057C2.87662 24.3961 4.29337 26.0475 6.00595 27.3514C7.10483 28.2048 8.31906 28.8985 9.61252 29.412C11.426 30.1545 13.3669 30.5369 15.3267 30.5379C19.3721 30.529 23.2489 28.918 26.1074 26.058C28.9658 23.1981 30.5727 19.3225 30.5756 15.2809C30.5786 13.1961 30.1488 11.1335 29.3134 9.22308ZM15.3154 3.10903C17.0754 3.10885 18.814 3.49315 20.4097 4.23501C20.0206 4.40298 19.6115 4.52029 19.1925 4.58407C17.8136 4.78348 16.5362 5.42302 15.5511 6.40723C14.566 7.39144 13.9259 8.66752 13.7262 10.0451C13.6386 10.8177 13.2869 11.5363 12.7305 12.08C12.1741 12.6235 11.447 12.9587 10.6719 13.0289C9.29314 13.2283 8.01578 13.8679 7.03063 14.8521C6.04549 15.8363 5.40534 17.1124 5.20574 18.4899C5.13817 19.2245 4.82446 19.9148 4.31537 20.4491C3.43701 18.595 3.04243 16.5489 3.16834 14.5014C3.29426 12.4539 3.93657 10.4715 5.03553 8.73863C6.13447 7.00583 7.65434 5.5789 9.45363 4.59066C11.253 3.60242 13.2733 3.08498 15.3267 3.08652L15.3154 3.10903ZM5.99469 23.1628C6.12992 23.0389 6.26517 22.9263 6.40042 22.7912C7.40311 21.82 8.04672 20.5379 8.22624 19.1543C8.29903 18.3765 8.64665 17.65 9.20681 17.1049C9.74575 16.5444 10.4713 16.2001 11.2467 16.1367C12.6256 15.9372 13.9029 15.2977 14.888 14.3135C15.8732 13.3293 16.5133 12.0531 16.7129 10.6756C16.7617 9.8621 17.1112 9.0957 17.6934 8.52503C18.2458 7.97536 18.9782 7.64348 19.756 7.59044C21.0227 7.41632 22.2041 6.85373 23.1371 5.98029C24.1995 6.86089 25.0997 7.92024 25.797 9.11054C25.7542 9.16832 25.705 9.22121 25.6504 9.26814C25.1125 9.83365 24.3879 10.1856 23.6105 10.259C22.2302 10.4549 20.951 11.0934 19.9652 12.0782C18.9794 13.0631 18.3404 14.3411 18.1443 15.7201C18.0649 16.4952 17.7196 17.2191 17.1671 17.769C16.6146 18.319 15.8887 18.6612 15.1125 18.7377C13.7297 18.9355 12.4476 19.5738 11.4567 20.5577C10.4659 21.5415 9.81911 22.8184 9.61252 24.1986C9.55186 24.7489 9.36269 25.2774 9.06027 25.7413C7.90391 25.0553 6.86824 24.1842 5.99469 23.1628ZM15.3154 27.509C14.1717 27.5103 13.0336 27.3511 11.9343 27.0361C12.3103 26.3358 12.5547 25.5725 12.6555 24.7841C12.7346 24.0107 13.0781 23.2882 13.6284 22.7385C14.1786 22.1888 14.9019 21.8455 15.6761 21.7665C17.0569 21.5694 18.3368 20.9308 19.3242 19.9465C20.3115 18.962 20.9533 17.6847 21.1535 16.3056C21.2325 15.5321 21.5761 14.8096 22.1264 14.2599C22.6766 13.7101 23.3998 13.3668 24.1741 13.2879C25.2132 13.1529 26.2036 12.7664 27.0592 12.1619C27.5344 13.9611 27.5906 15.8452 27.2238 17.6695C26.8569 19.4938 26.0767 21.2099 24.9428 22.6862C23.809 24.1625 22.3517 25.3597 20.6829 26.1859C19.014 27.0121 17.1779 27.4456 15.3154 27.4528L15.3154 27.509Z" fill="rgb(40,41,56)" fill-rule="nonzero" />
</svg>
