<svg viewBox="0 0 24.6895 30.6387" xmlns="http://www.w3.org/2000/svg" xmlns:xlink="http://www.w3.org/1999/xlink" width="24.689453" height="30.638672" fill="none" customFrame="#000000">
	<g id="Группа 2">
		<path id="Vector" d="M13.9312 4.45938L13.9312 0L0 0L0 30.6386L13.9312 30.6386L13.9312 26.1792C11.0774 26.1792 8.34047 25.0351 6.32253 22.9984C4.30458 20.9618 3.17091 18.1995 3.17091 15.3193C3.17091 12.439 4.30458 9.67679 6.32253 7.6402C8.34047 5.60355 11.0774 4.45938 13.9312 4.45938Z" fill="rgb(40,41,56)" fill-rule="nonzero" />
		<path id="Vector" d="M13.9297 4.45898L13.9297 26.1788C16.7835 26.1788 19.5204 25.0347 21.5384 22.998C23.5564 20.9614 24.69 18.1991 24.69 15.3189C24.69 12.4387 23.5564 9.6764 21.5384 7.6398C19.5204 5.60315 16.7835 4.45898 13.9297 4.45898Z" fill="rgb(40,41,56)" fill-rule="nonzero" />
	</g>
</svg>
