<svg viewBox="0 0 35.5 30.5845" xmlns="http://www.w3.org/2000/svg" xmlns:xlink="http://www.w3.org/1999/xlink" width="35.500000" height="30.584473" fill="none" customFrame="#000000">
	<path id="Vector" d="M0.53139 13.4496C1.48759 9.60914 3.70214 6.1987 6.82241 3.76139C9.94263 1.32407 13.7893 0 17.7497 0C21.7102 0 25.5567 1.32407 28.677 3.76139C31.7973 6.1987 34.0119 9.60914 34.9681 13.4496L33.4128 13.4496C30.7891 13.411 28.2192 14.1946 26.064 15.6902C25.9396 15.7802 25.8098 15.8624 25.6752 15.9363L25.4938 15.9363C25.3592 15.8624 25.2293 15.7802 25.1049 15.6902C22.9307 14.2292 20.3699 13.4489 17.7497 13.4489C15.1295 13.4489 12.5688 14.2292 10.3945 15.6902C10.2701 15.7802 10.1403 15.8624 10.0057 15.9363L9.82424 15.9363C9.68966 15.8624 9.5598 15.7802 9.43542 15.6902C7.28023 14.1946 4.71035 13.411 2.08668 13.4496L0.53139 13.4496ZM30.6132 21.5702C31.4116 20.9489 32.4012 20.6238 33.4128 20.6506L35.4995 20.6506L35.4995 16.4932L33.4128 16.4932C31.6309 16.4717 29.8899 17.0259 28.4489 18.0733C27.6378 18.6708 26.6568 18.993 25.6493 18.993C24.6418 18.993 23.6608 18.6708 22.8498 18.0733C21.3721 17.0455 19.6149 16.4945 17.8145 16.4945C16.0142 16.4945 14.2569 17.0455 12.7793 18.0733C11.9683 18.6708 10.9872 18.993 9.9798 18.993C8.97225 18.993 7.9912 18.6708 7.18025 18.0733C5.72139 17.0125 3.95535 16.4576 2.15148 16.4932L0 16.4932L0 20.6506L2.08668 20.6506C3.09827 20.6238 4.0878 20.9489 4.8862 21.5702C6.36114 22.5987 8.11639 23.1502 9.91497 23.1502C11.7135 23.1502 13.4688 22.5987 14.9438 21.5702C15.7432 20.9507 16.7319 20.626 17.7433 20.6506C18.7551 20.6216 19.7454 20.9469 20.5428 21.5702C22.0204 22.598 23.7776 23.149 25.578 23.149C27.3784 23.149 29.1356 22.598 30.6132 21.5702ZM30.6132 29.0043C31.4116 28.383 32.4012 28.0579 33.4128 28.0848L35.4995 28.0848L35.4995 23.9273L33.4128 23.9273C31.6309 23.9058 29.8899 24.46 28.4489 25.5074C27.6378 26.1049 26.6568 26.4272 25.6493 26.4272C24.6418 26.4272 23.6608 26.1049 22.8498 25.5074C21.3721 24.4795 19.6149 23.9286 17.8145 23.9286C16.0142 23.9286 14.2569 24.4795 12.7793 25.5074C11.9683 26.1049 10.9872 26.4272 9.9798 26.4272C8.97225 26.4272 7.9912 26.1049 7.18025 25.5074C5.72139 24.4466 3.95535 23.8917 2.15148 23.9273L0 23.9273L0 28.0848L2.08668 28.0848C3.09827 28.0579 4.0878 28.383 4.8862 29.0043C6.36114 30.0328 8.11639 30.5843 9.91497 30.5843C11.7135 30.5843 13.4688 30.0328 14.9438 29.0043C15.7432 28.3848 16.7319 28.0601 17.7433 28.0848C18.7551 28.0558 19.7454 28.381 20.5428 29.0043C22.0204 30.0321 23.7776 30.5831 25.578 30.5831C27.3784 30.5831 29.1356 30.0321 30.6132 29.0043Z" fill="rgb(40,41,56)" fill-rule="nonzero" />
</svg>
