<svg viewBox="0 0 31.5762 31.5112" xmlns="http://www.w3.org/2000/svg" xmlns:xlink="http://www.w3.org/1999/xlink" width="31.576172" height="31.511230" fill="none" customFrame="#000000">
	<path id="Vector" d="M31.5759 10.5397C31.576 8.41658 30.9357 6.34297 29.7389 4.59041C28.5421 2.83785 26.8446 1.48809 24.8687 0.717906C22.8929 -0.0522704 20.7307 -0.206947 18.6656 0.274135C16.6005 0.75522 14.7286 1.84963 13.2951 3.41402L0 3.41402L0 31.5114L28.071 31.5114L28.071 18.3801C29.1727 17.3933 30.0544 16.1851 30.6583 14.8341C31.2622 13.4831 31.5749 12.0199 31.5759 10.5397ZM26.1748 10.5397C26.1769 11.557 25.8775 12.5522 25.3145 13.3992C24.7516 14.2461 23.9504 14.9067 23.0123 15.2975C22.0743 15.6883 21.0414 15.7917 20.0447 15.5944C19.0479 15.3973 18.132 14.9085 17.4128 14.1898C16.6936 13.4712 16.2035 12.555 16.0046 11.5574C15.8056 10.5597 15.9067 9.52538 16.295 8.58526C16.6833 7.64512 17.3414 6.84148 18.1861 6.27604C19.0307 5.71061 20.0239 5.40879 21.0399 5.40878C22.3999 5.40878 23.7043 5.94901 24.667 6.91094C25.6297 7.87287 26.1719 9.17793 26.1748 10.5397ZM22.6698 26.1032L5.40114 26.1032L5.40114 8.82231L10.6638 8.82231C10.5621 9.38922 10.5087 9.9637 10.504 10.5397C10.5068 13.3368 11.6177 16.0186 13.593 17.9965C15.5683 19.9743 18.2465 21.0867 21.0399 21.0896C21.586 21.0866 22.131 21.0403 22.6698 20.9509L22.6698 26.1032Z" fill="rgb(40,41,56)" fill-rule="nonzero" />
</svg>
