<svg viewBox="0 0 31.2617 31.792" xmlns="http://www.w3.org/2000/svg" xmlns:xlink="http://www.w3.org/1999/xlink" width="31.261719" height="31.791992" fill="none" customFrame="#000000">
	<g id="Группа 1">
		<path id="Vector" d="M23.8939 13.9525C23.4489 14.407 23.1081 14.9557 22.8958 15.5592C22.6836 16.1628 22.605 16.8065 22.6657 17.4445L22.6446 17.423C22.707 18.1739 22.6073 18.9296 22.3524 19.6374C22.0975 20.3451 21.6936 20.9878 21.1688 21.5207C20.644 22.0536 20.011 22.4638 19.314 22.7226C18.617 22.9814 17.8727 23.0826 17.1331 23.0193L17.1543 23.0407C16.2697 22.9572 15.3811 23.1526 14.61 23.6005C13.8387 24.0484 13.2223 24.727 12.8449 25.5435C12.4673 26.3602 12.347 27.2752 12.5004 28.1638C12.6538 29.0523 13.0733 29.8712 13.7018 30.5089C14.3303 31.1464 15.1372 31.5718 16.0125 31.7267C16.8877 31.8816 17.7888 31.7586 18.5927 31.3746C19.3966 30.9905 20.0642 30.3639 20.5047 29.5805C20.945 28.797 21.1368 27.8947 21.0536 26.9965L21.0759 27.018C21.0135 26.267 21.1132 25.5113 21.3681 24.8036C21.623 24.0958 22.027 23.4531 22.5517 22.9203C23.0766 22.3874 23.7095 21.9772 24.4065 21.7184C25.1036 21.4596 25.8478 21.3583 26.5874 21.4217L26.565 21.4003C27.2876 21.4662 28.015 21.346 28.6796 21.0504C29.3443 20.755 29.9248 20.294 30.3672 19.7101C30.8096 19.1263 31.0997 18.4385 31.2107 17.7104C31.3217 16.9824 31.2498 16.2376 31.0018 15.5453C30.7539 14.853 30.3378 14.2354 29.7921 13.7498C29.2464 13.2643 28.5889 12.9264 27.8805 12.7675C27.172 12.6086 26.4355 12.634 25.7392 12.8411C25.0429 13.0483 24.4094 13.4305 23.8974 13.9525L23.8939 13.9525Z" fill="rgb(40,41,56)" fill-rule="nonzero" />
		<path id="Vector" d="M15.2319 20.2294L15.2096 20.2079C15.8381 20.2722 16.4729 20.1939 17.068 19.9785C17.6631 19.7633 18.2036 19.4164 18.6505 18.9629C19.0974 18.5096 19.4394 17.9609 19.6519 17.3569C19.8644 16.7529 19.942 16.1083 19.8792 15.47L19.9015 15.4915C19.8391 14.7406 19.9388 13.9849 20.1937 13.2772C20.4486 12.5694 20.8525 11.9267 21.3773 11.3938C21.902 10.8609 22.5351 10.4507 23.2321 10.1919C23.9291 9.93309 24.6734 9.83182 25.4129 9.89525L25.3906 9.87379C26.2753 9.95812 27.1641 9.7633 27.9357 9.31596C28.7073 8.86855 29.3243 8.19035 29.7024 7.37383C30.0805 6.55732 30.2013 5.64227 30.0485 4.75346C29.8955 3.86465 29.4763 3.04538 28.848 2.40738C28.2196 1.76938 27.4128 1.34372 26.5375 1.18846C25.6621 1.0332 24.7609 1.15589 23.9568 1.53981C23.1527 1.92372 22.4847 2.55017 22.0442 3.3337C21.6035 4.11723 21.4117 5.0197 21.4948 5.91801L21.4737 5.89536C21.5363 6.64632 21.4367 7.40212 21.1819 8.10996C20.9271 8.81781 20.5231 9.46062 19.9982 9.99351C19.4735 10.5265 18.8404 10.9367 18.1433 11.1954C17.4461 11.4541 16.7018 11.5552 15.9622 11.4916L15.9833 11.5143C15.3548 11.45 14.72 11.5283 14.1249 11.7436C13.5299 11.9589 12.9893 12.3058 12.5424 12.7593C12.0956 13.2126 11.7535 13.7612 11.541 14.3653C11.3286 14.9694 11.2509 15.6138 11.3138 16.2521L11.2927 16.2307C11.3549 16.9816 11.255 17.7371 11 18.4448C10.745 19.1525 10.3411 19.7951 9.81637 20.3279C9.29163 20.8608 8.65872 21.271 7.96179 21.5298C7.26486 21.7887 6.52071 21.8902 5.78122 21.8269L5.80235 21.8484C4.91766 21.7641 4.02887 21.9589 3.25722 22.4062C2.48556 22.8537 1.86861 23.5319 1.49052 24.3483C1.11243 25.1649 0.991591 26.0799 1.1445 26.9688C1.2974 27.8575 1.71661 28.6768 2.34494 29.3148C2.97327 29.9529 3.78012 30.3784 4.65545 30.5337C5.53078 30.6889 6.43198 30.5663 7.23611 30.1824C8.04024 29.7985 8.70817 29.1721 9.14874 28.3885C9.58939 27.605 9.78121 26.7025 9.69814 25.8041L9.72046 25.8256C9.65804 25.0747 9.75777 24.319 10.0127 23.6113C10.2675 22.9035 10.6715 22.2608 11.1963 21.7279C11.7211 21.195 12.354 20.7849 13.0511 20.526C13.7481 20.2672 14.4924 20.166 15.2319 20.2294Z" fill="rgb(40,41,56)" fill-rule="nonzero" />
		<path id="Vector" d="M7.36175 17.8367C7.80678 17.3822 8.1475 16.8336 8.3596 16.23C8.5717 15.6263 8.64994 14.9826 8.58874 14.3447L8.61104 14.3661C8.54857 13.615 8.64833 12.8591 8.90332 12.1512C9.15839 11.4432 9.56258 10.8004 10.0876 10.2674C10.6126 9.73452 11.2459 9.32445 11.9432 9.06579C12.6406 8.80712 13.3851 8.70615 14.1248 8.76991L14.1025 8.74845C14.9869 8.83257 15.8753 8.63766 16.6466 8.1903C17.4179 7.74294 18.0346 7.06489 18.4124 6.24864C18.7903 5.43238 18.9109 4.51765 18.7581 3.62917C18.6052 2.7407 18.1861 1.92175 17.558 1.28398C16.9299 0.646219 16.1234 0.220694 15.2483 0.0654383C14.3734 -0.0898161 13.4725 0.0327569 12.6686 0.41644C11.8647 0.800124 11.197 1.42624 10.7563 2.20941C10.3158 2.99257 10.1239 3.89467 10.2067 4.79268L10.1856 4.77122C10.248 5.52214 10.1483 6.27784 9.89337 6.98559C9.63848 7.69334 9.23458 8.33607 8.70975 8.86894C8.18496 9.40182 7.55196 9.81198 6.85494 10.0708C6.15793 10.3296 5.41368 10.4309 4.67414 10.3675L4.69528 10.3889C3.97267 10.3231 3.24541 10.4436 2.58087 10.7392C1.91632 11.0348 1.336 11.4958 0.893696 12.0798C0.45138 12.6637 0.161384 13.3516 0.0505734 14.0796C-0.0602368 14.8077 0.0117251 15.5523 0.259792 16.2445C0.507854 16.9368 0.924003 17.5543 1.46967 18.0397C2.01532 18.5253 2.67284 18.8631 3.3813 19.0219C4.08974 19.1806 4.8262 19.1552 5.52242 18.9481C6.21864 18.7409 6.8521 18.3586 7.3641 17.8367L7.36175 17.8367Z" fill="rgb(40,41,56)" fill-rule="nonzero" />
	</g>
</svg>
