<svg viewBox="0 0 48 48" xmlns="http://www.w3.org/2000/svg" xmlns:xlink="http://www.w3.org/1999/xlink" width="48.000000" height="48.000000" fill="none">
	<rect id="Icon" width="48.000000" height="48.000000" x="0.000000" y="0.000000" fill="rgb(255,255,255)" fill-opacity="0" />
	<path id="Vector" d="M25.0305 13.914L14.04 12.2445C13.53 12.165 13.0095 12.3045 12.6195 12.6345C12.2295 12.975 12 13.464 12 13.974L12 35.0445C12 35.595 12.45 36.045 13.0005 36.045L16.251 36.045L16.251 30.795C16.251 29.8245 17.031 29.0445 18.0015 29.0445L20.502 29.0445C21.4725 29.0445 22.2525 29.8245 22.2525 30.795L22.2525 36.045L26.502 36.045L26.502 15.645C26.5005 14.784 25.8795 14.055 25.0305 13.914ZM17.5005 26.7945L16.0005 26.7945C15.5865 26.7945 15.2505 26.4585 15.2505 26.0445C15.2505 25.6305 15.5865 25.2945 16.0005 25.2945L17.5005 25.2945C17.9145 25.2945 18.2505 25.6305 18.2505 26.0445C18.2505 26.4585 17.9145 26.7945 17.5005 26.7945ZM17.5005 23.7945L16.0005 23.7945C15.5865 23.7945 15.2505 23.4585 15.2505 23.0445C15.2505 22.6305 15.5865 22.2945 16.0005 22.2945L17.5005 22.2945C17.9145 22.2945 18.2505 22.6305 18.2505 23.0445C18.2505 23.4585 17.9145 23.7945 17.5005 23.7945ZM17.5005 20.7945L16.0005 20.7945C15.5865 20.7945 15.2505 20.4585 15.2505 20.0445C15.2505 19.6305 15.5865 19.2945 16.0005 19.2945L17.5005 19.2945C17.9145 19.2945 18.2505 19.6305 18.2505 20.0445C18.2505 20.4585 17.9145 20.7945 17.5005 20.7945ZM17.5005 17.7945L16.0005 17.7945C15.5865 17.7945 15.2505 17.4585 15.2505 17.0445C15.2505 16.6305 15.5865 16.2945 16.0005 16.2945L17.5005 16.2945C17.9145 16.2945 18.2505 16.6305 18.2505 17.0445C18.2505 17.4585 17.9145 17.7945 17.5005 17.7945ZM22.5 26.7945L21 26.7945C20.586 26.7945 20.25 26.4585 20.25 26.0445C20.25 25.6305 20.586 25.2945 21 25.2945L22.5 25.2945C22.914 25.2945 23.25 25.6305 23.25 26.0445C23.25 26.4585 22.914 26.7945 22.5 26.7945ZM22.5 23.7945L21 23.7945C20.586 23.7945 20.25 23.4585 20.25 23.0445C20.25 22.6305 20.586 22.2945 21 22.2945L22.5 22.2945C22.914 22.2945 23.25 22.6305 23.25 23.0445C23.25 23.4585 22.914 23.7945 22.5 23.7945ZM22.5 20.7945L21 20.7945C20.586 20.7945 20.25 20.4585 20.25 20.0445C20.25 19.6305 20.586 19.2945 21 19.2945L22.5 19.2945C22.914 19.2945 23.25 19.6305 23.25 20.0445C23.25 20.4585 22.914 20.7945 22.5 20.7945ZM22.5 17.7945L21 17.7945C20.586 17.7945 20.25 17.4585 20.25 17.0445C20.25 16.6305 20.586 16.2945 21 16.2945L22.5 16.2945C22.914 16.2945 23.25 16.6305 23.25 17.0445C23.25 17.4585 22.914 17.7945 22.5 17.7945Z" fill="rgb(35,37,54)" fill-rule="nonzero" />
	<path id="Vector" d="M34.6205 22.887L27.5 21.396L27.5 36.045L34.25 36.045C35.2145 36.045 36.0005 35.2605 36.0005 34.2945L36.0005 24.597C36.0005 23.7705 35.4365 23.067 34.6205 22.887ZM32.2505 33.045L30.7505 33.045C30.3365 33.045 30.0005 32.709 30.0005 32.295C30.0005 31.881 30.3365 31.545 30.7505 31.545L32.2505 31.545C32.6645 31.545 33.0005 31.881 33.0005 32.295C33.0005 32.709 32.6645 33.045 32.2505 33.045ZM32.2505 30.045L30.7505 30.045C30.3365 30.045 30.0005 29.709 30.0005 29.295C30.0005 28.881 30.3365 28.545 30.7505 28.545L32.2505 28.545C32.6645 28.545 33.0005 28.881 33.0005 29.295C33.0005 29.709 32.6645 30.045 32.2505 30.045ZM32.2505 27.045L30.7505 27.045C30.3365 27.045 30.0005 26.709 30.0005 26.295C30.0005 25.881 30.3365 25.545 30.7505 25.545L32.2505 25.545C32.6645 25.545 33.0005 25.881 33.0005 26.295C33.0005 26.709 32.6645 27.045 32.2505 27.045Z" fill="rgb(255,208,80)" fill-rule="nonzero" />
</svg>
