<svg viewBox="0 0 48 48" xmlns="http://www.w3.org/2000/svg" xmlns:xlink="http://www.w3.org/1999/xlink" width="48.000000" height="48.000000" fill="none">
	<defs>
		<clipPath id="clipPath_1">
			<rect width="22.956522" height="24.000000" x="13.000000" y="12.000000" fill="rgb(255,255,255)" />
		</clipPath>
	</defs>
	<rect id="icon" width="48.000000" height="48.000000" x="0.000000" y="0.000000" fill="rgb(255,255,255)" fill-opacity="0" />
	<g id="economy (1)" clip-path="url(#clipPath_1)" customFrame="url(#clipPath_1)">
		<rect id="economy (1)" width="22.956522" height="24.000000" x="13.000000" y="12.000000" fill="rgb(255,255,255)" fill-opacity="0" />
		<g id="Group">
			<g id="Group">
				<path id="Vector" d="M18.1156 27.4253L15.5317 27.4253C14.5999 27.4253 13.8418 28.2179 13.8418 29.192L13.8418 34.915C13.8418 35.5133 14.3074 36 14.8796 36L18.7676 36C19.3398 36 19.8054 35.5133 19.8054 34.915L19.8054 29.1921C19.8054 28.2179 19.0474 27.4253 18.1156 27.4253Z" fill="rgb(35,37,54)" fill-rule="nonzero" />
			</g>
		</g>
		<g id="Group">
			<g id="Group">
				<path id="Vector" d="M25.6996 23.9492L23.1157 23.9492C22.1839 23.9492 21.4258 24.7418 21.4258 25.7159L21.4258 34.9148C21.4258 35.5131 21.8914 35.9998 22.4636 35.9998L26.3516 35.9998C26.9239 35.9998 27.3894 35.5131 27.3894 34.9148L27.3894 25.7159C27.3894 24.7417 26.6314 23.9492 25.6996 23.9492Z" fill="rgb(35,37,54)" fill-rule="nonzero" />
			</g>
		</g>
		<g id="Group">
			<g id="Group">
				<path id="Vector" d="M33.4261 19.9888L30.8423 19.9888C29.9104 19.9888 29.1523 20.7813 29.1523 21.7554L29.1523 34.9148C29.1523 35.5131 29.6179 35.9998 30.1901 35.9998L34.0781 35.9998C34.6504 35.9998 35.1159 35.5131 35.1159 34.9148L35.1159 21.7554C35.116 20.7813 34.3579 19.9888 33.4261 19.9888Z" fill="rgb(35,37,54)" fill-rule="nonzero" />
			</g>
		</g>
		<g id="Group">
			<g id="Group">
				<path id="Vector" d="M31.3681 12.6682C31.052 12.2011 30.538 11.9541 29.9929 12.0064L25.1128 12.4785C24.5678 12.5312 24.1059 12.8729 23.8771 13.3926C23.6483 13.9123 23.7004 14.5015 24.0165 14.9686L24.2889 15.371L18.2318 19.7468L18.2256 19.7513C17.7958 20.0693 17.5102 20.5432 17.4213 21.0858C17.3325 21.6284 17.4511 22.1746 17.7552 22.624C18.0593 23.0733 18.5127 23.3719 19.0317 23.4648C19.1441 23.4849 19.2567 23.4949 19.3685 23.4949C19.7713 23.4949 20.1637 23.3657 20.4996 23.1184L26.5664 18.7357L26.8476 19.1511C27.1357 19.5767 27.588 19.8198 28.0783 19.8198C28.1261 19.8198 28.1743 19.8175 28.2228 19.8128C28.7677 19.7601 29.2297 19.4183 29.4585 18.8986L31.5076 14.2441C31.7364 13.7243 31.6843 13.1352 31.3681 12.6682Z" fill="rgb(255,208,80)" fill-rule="nonzero" />
			</g>
		</g>
	</g>
</svg>
