<svg viewBox="0 0 24 24" xmlns="http://www.w3.org/2000/svg" xmlns:xlink="http://www.w3.org/1999/xlink" width="24.000000" height="24.000000" fill="none">
	<rect id="cyborg" width="24.000000" height="24.000000" x="0.000000" y="0.000000" fill="rgb(255,255,255)" fill-opacity="0" />
	<g id="Group">
		<path id="Vector" d="M15.5176 7.03125C15.5176 7.80647 16.1486 8.4375 16.9238 8.4375L21.1042 8.4375C21.0283 7.44788 20.7988 6.50212 20.4316 5.625L16.9238 5.625C16.1486 5.625 15.5176 6.25603 15.5176 7.03125Z" fill="rgb(35,37,54)" fill-rule="nonzero" />
		<path id="Vector" d="M6.37695 24L14.8145 24C15.2031 24 15.5176 23.6855 15.5176 23.2969L15.5176 19.6875L16.9238 19.6875L16.9238 15.1172L9.893 9.84375L3.56445 9.84375C3.17581 9.84375 2.86133 10.1582 2.86133 10.5469C2.86133 13.0373 3.88236 15.4228 5.67383 17.1428L5.67383 23.2969C5.67383 23.6855 5.98831 24 6.37695 24Z" fill="rgb(255,208,80)" fill-rule="nonzero" />
		<path id="Vector" d="M12.002 1.33227e-15C11.6133 1.33227e-15 11.2988 0.314484 11.2988 0.703125L11.2988 1.40625L8.35681 1.40625C8.06558 0.589594 7.29242 1.33227e-15 6.37695 1.33227e-15C5.2138 1.33227e-15 4.26758 0.946219 4.26758 2.10938C4.26758 3.27253 5.2138 4.21875 6.37695 4.21875C7.29242 4.21875 8.06558 3.62916 8.35681 2.8125L11.2988 2.8125L11.2988 5.625L4.13806 5.625C3.84683 4.80834 3.07367 4.21875 2.1582 4.21875C0.995047 4.21875 0.00195312 5.16497 0.00195312 6.32812C0.00195312 7.49128 0.995047 8.4375 2.1582 8.4375C3.07367 8.4375 3.84683 7.84791 4.13806 7.03125L11.2988 7.03125L11.2988 9.14095L18.0485 14.2033C18.2257 14.3358 18.3301 14.5445 18.3301 14.7656L18.3301 19.6875L19.0332 19.6875C20.1964 19.6875 21.1426 18.7413 21.1426 17.5781L21.1426 14.0625L23.2988 14.0625C23.5584 14.0625 23.7966 13.9197 23.9189 13.691C24.0411 13.4624 24.0274 13.185 23.8839 12.9693L21.7533 9.84375L16.9238 9.84375C15.3727 9.84375 14.1113 8.58239 14.1113 7.03125C14.1113 5.48011 15.3727 4.21875 16.9238 4.21875L19.6897 4.21875C18.0628 1.68647 15.2291 0 12.002 0L12.002 1.33227e-15Z" fill="rgb(35,37,54)" fill-rule="nonzero" />
	</g>
</svg>
